<svg width="32" height="20" viewBox="0 0 32 20" fill="none" xmlns="http://www.w3.org/2000/svg">
<path d="M15.8656 19.9999C25.3314 19.9999 31.7238 12.3694 31.7238 10.0079C31.7238 7.6411 25.322 0.0200195 15.8656 0.0200195C6.53721 0.0200195 0 7.6411 0 10.0079C0 12.3694 6.52774 19.9999 15.8656 19.9999ZM15.8656 17.785C8.47958 17.785 2.61477 11.6171 2.61477 10.0079C2.61477 8.65893 8.47958 2.23486 15.8656 2.23486C23.2232 2.23486 29.1091 8.65893 29.1091 10.0079C29.1091 11.6171 23.2232 17.785 15.8656 17.785ZM15.8677 16.2323C19.3274 16.2323 22.0994 13.3963 22.0994 10.0079C22.0994 6.53551 19.3274 3.78979 15.8677 3.78979C12.3933 3.78979 9.60756 6.53344 9.61703 10.0079C9.63596 13.3963 12.3933 16.2323 15.8677 16.2323ZM15.8635 12.0244C14.7418 12.0244 13.8364 11.1107 13.8364 10.0079C13.8364 8.89562 14.7418 7.99554 15.8635 7.99554C16.982 7.99554 17.8895 8.89562 17.8895 10.0079C17.8895 11.1107 16.982 12.0244 15.8635 12.0244Z" fill="#1C1C1E"/>
</svg>
