<svg width="20" height="20" viewBox="0 0 20 20" fill="none" xmlns="http://www.w3.org/2000/svg">
<path d="M17.5 9.99658V15.8299C17.5 16.2719 17.3243 16.6958 17.0117 17.0084C16.6992 17.321 16.2754 17.4966 15.8333 17.4966H4.16667C3.72464 17.4966 3.30064 17.321 2.98808 17.0084C2.67552 16.6958 2.5 16.2719 2.5 15.8299V4.16325C2.5 3.72122 2.67552 3.29732 2.98808 2.98476C3.30064 2.6722 3.72464 2.49658 4.16667 2.49658H10" stroke="#007AFF" stroke-width="2" stroke-miterlimit="10"/>
<path d="M8.33331 8.93803V11.663H11.0665L18.0916 4.638C18.2468 4.48187 18.3339 4.27069 18.3339 4.05054C18.3339 3.83038 18.2468 3.61921 18.0916 3.46307L16.5415 1.91309C16.4641 1.83498 16.3719 1.7729 16.2703 1.73059C16.1688 1.68828 16.0599 1.6665 15.9499 1.6665C15.8399 1.6665 15.731 1.68828 15.6295 1.73059C15.5279 1.7729 15.4357 1.83498 15.3583 1.91309L8.33331 8.93803Z" stroke="#007AFF" stroke-width="2" stroke-linejoin="round"/>
</svg>
