<svg width="22" height="22" viewBox="0 0 22 22" fill="none" xmlns="http://www.w3.org/2000/svg">
<path d="M22 17H0" stroke="#8E8E93" stroke-width="2" stroke-miterlimit="10"/>
<path d="M1.00012 17C1.79577 17 2.55861 16.6839 3.12122 16.1213C3.68382 15.5587 4.00012 14.7956 4.00012 14V8C4.00012 6.14348 4.73742 4.36305 6.05017 3.05029C7.36293 1.73754 9.14361 1 11.0001 1C12.8566 1 14.6371 1.73754 15.9498 3.05029C17.2626 4.36305 18.0001 6.14348 18.0001 8V14C18.0001 14.7956 18.3162 15.5587 18.8788 16.1213C19.4414 16.6839 20.2045 17 21.0001 17" stroke="#8E8E93" stroke-width="2" stroke-miterlimit="10"/>
<path d="M14.0001 18C14.0001 18.7956 13.6838 19.5587 13.1212 20.1213C12.5586 20.6839 11.7958 21 11.0001 21C10.2045 21 9.44139 20.6839 8.87878 20.1213C8.31618 19.5587 8.00012 18.7956 8.00012 18" stroke="#8E8E93" stroke-width="2" stroke-miterlimit="10"/>
</svg>
