<svg width="24" height="24" viewBox="0 0 24 24" fill="none" xmlns="http://www.w3.org/2000/svg">
<path d="M18 9H6C4.89543 9 4 9.89543 4 11V20C4 21.1046 4.89543 22 6 22H18C19.1046 22 20 21.1046 20 20V11C20 9.89543 19.1046 9 18 9Z" stroke="#8E8E93" stroke-width="1.5" stroke-miterlimit="10"/>
<path d="M12 12.5V18.5" stroke="#8E8E93" stroke-width="1.5" stroke-miterlimit="10"/>
<path d="M8.00012 8V6C8.00012 4.93913 8.42136 3.92178 9.17151 3.17163C9.92165 2.42149 10.9393 2 12.0001 2C13.061 2 14.0783 2.42149 14.8285 3.17163C15.5786 3.92178 16.0001 4.93913 16.0001 6V8" stroke="#8E8E93" stroke-width="1.5" stroke-miterlimit="10"/>
</svg>
