<svg width="23" height="18" viewBox="0 0 23 18" fill="none" xmlns="http://www.w3.org/2000/svg">
<path d="M19.9999 5.99985V6.99985C20.0199 6.99985 20.0399 6.99925 20.0599 6.99804L19.9999 5.99985ZM17.2199 5.99985L17.2 6.99965C17.2066 6.99978 17.2132 6.99985 17.2199 6.99985V5.99985ZM14.0599 8.83987L13.0637 8.75325C13.0627 8.76433 13.062 8.77543 13.0614 8.78654L14.0599 8.83987ZM17.0599 11.9998V10.9998L17.0585 10.9998L17.0599 11.9998ZM21.0599 6.99985L20.0599 6.99804V6.99985H21.0599ZM4 5.70996H8V3.70996H4V5.70996ZM18 12V15H20V12H18ZM18 15C18 15.265 17.8946 15.5195 17.707 15.7071L19.1212 17.1214C19.6837 16.5589 20 15.7958 20 15H18ZM17.707 15.7071C17.5194 15.8947 17.2652 16 17 16V18C17.7957 18 18.5586 17.6839 19.1212 17.1214L17.707 15.7071ZM17 16H3V18H17V16ZM3 16C2.73469 16 2.48027 15.8946 2.2928 15.7071L0.878587 17.1214C1.44126 17.684 2.20444 18 3 18V16ZM2.2928 15.7071C2.10536 15.5197 2 15.2654 2 15H0C0 15.7955 0.315881 16.5586 0.878587 17.1214L2.2928 15.7071ZM2 15V3H0V15H2ZM2 3C2 2.73468 2.10534 2.48039 2.2928 2.29292L0.878587 0.878709C0.315904 1.44139 0 2.20445 0 3H2ZM2.2928 2.29292C2.48033 2.10539 2.73477 2 3 2V0C2.20436 0 1.4412 0.316091 0.878587 0.878709L2.2928 2.29292ZM3 2H17V0H3V2ZM17 2C17.2651 2 17.5193 2.1053 17.707 2.29292L19.1212 0.878709C18.5586 0.316182 17.7958 0 17 0V2ZM17.707 2.29292C17.8946 2.48061 18 2.73499 18 3H20C20 2.20414 19.6836 1.44117 19.1212 0.878709L17.707 2.29292ZM18 3V6H20V3H18ZM19.9999 4.99985H17.2199V6.99985H19.9999V4.99985ZM17.2397 5.00004C16.1974 4.97936 15.1861 5.35557 14.4108 6.05241L15.7477 7.53993C16.1457 7.18218 16.6649 6.98903 17.2 6.99965L17.2397 5.00004ZM14.4108 6.05241C13.6353 6.74934 13.154 7.71482 13.0637 8.75325L15.0562 8.92649C15.1025 8.39318 15.3497 7.89759 15.7477 7.53993L14.4108 6.05241ZM13.0614 8.78654C13.0324 9.32935 13.1142 9.87255 13.3023 10.3829L15.1789 9.69139C15.085 9.43643 15.044 9.16483 15.0585 8.89321L13.0614 8.78654ZM13.3023 10.3829C13.4903 10.8932 13.7805 11.3597 14.1548 11.7539L15.6052 10.3769C15.4179 10.1796 15.2729 9.94633 15.1789 9.69139L13.3023 10.3829ZM14.1548 11.7539C14.5291 12.1482 14.9798 12.4621 15.4797 12.6763L16.2677 10.8381C16.0178 10.731 15.7925 10.5741 15.6052 10.3769L14.1548 11.7539ZM15.4797 12.6763C15.9795 12.8906 16.5177 13.0006 17.0614 12.9998L17.0585 10.9998C16.7866 11.0002 16.5175 10.9452 16.2677 10.8381L15.4797 12.6763ZM17.0599 12.9998H20.0599V10.9998H17.0599V12.9998ZM20.0599 12.9998C20.5903 12.9998 21.099 12.7892 21.4741 12.4141L20.0599 10.9999L20.0599 10.9998V12.9998ZM21.4741 12.4141C21.849 12.0391 22.0599 11.5304 22.0599 10.9998H20.0599L20.0599 10.9999L21.4741 12.4141ZM22.0599 10.9998V6.99985H20.0599V10.9998H22.0599ZM22.0599 7.00165C22.0604 6.72801 22.0047 6.45783 21.897 6.20755L20.0598 6.99808L20.0599 6.99804L22.0599 7.00165ZM21.897 6.20755C21.7889 5.95651 21.6306 5.73048 21.4322 5.54327L20.0598 6.99805L20.0598 6.99808L21.897 6.20755ZM21.4322 5.54327C21.2337 5.356 20.999 5.21126 20.7421 5.11806L20.0599 6.99809L20.0598 6.99805L21.4322 5.54327ZM20.7421 5.11806C20.4857 5.02499 20.2127 4.98525 19.9399 5.00165L20.0599 6.99804L20.0599 6.99809L20.7421 5.11806Z" fill="#C7C7CC"/>
</svg>
