<svg width="54" height="18" viewBox="0 0 54 18" fill="none" xmlns="http://www.w3.org/2000/svg">
<g clip-path="url(#clip0_466_1450)">
<path d="M26.1347 0.316L23.3997 17.7415H19.0259L21.7609 0.316H26.1347ZM34.9557 7.3041C33.4259 6.50713 32.4886 5.96933 32.4886 5.15345C32.5069 4.41209 33.2812 3.65183 35.0081 3.65183C36.4304 3.61456 37.4752 3.96661 38.2668 4.31921L38.6621 4.50497L39.256 0.742572C38.0048 0.245949 36.6746 -0.0058492 35.3337 0.000103114C31.0139 0.000103114 27.9706 2.37267 27.9533 5.76466C27.9177 8.26737 30.1316 9.65776 31.7871 10.492C33.4794 11.3446 34.055 11.9013 34.055 12.661C34.0377 13.8289 32.6873 14.3662 31.4281 14.3662C29.6812 14.3662 28.7455 14.0881 27.3243 13.4391L26.7481 13.161L26.1347 17.0741C27.1606 17.5552 29.0505 17.9829 31.0133 18.0012C35.6031 18.0012 38.5913 15.6654 38.627 12.0503C38.6448 10.0665 37.4741 8.546 34.9557 7.3041ZM54 17.7415H49.9475C49.9475 17.7415 49.5512 15.7393 49.4254 15.1276H43.8096L42.8917 17.7415H38.3019L44.801 1.76145C45.2514 0.630784 46.043 0.315444 47.0873 0.315444H50.4707L54 17.7415ZM48.7056 11.5682C48.5258 10.6972 47.6974 6.52604 47.6974 6.52604L47.3918 5.02442C47.1758 5.6729 46.7978 6.72959 46.8162 6.69289C46.8162 6.69289 45.4301 10.5671 45.0694 11.5682H48.7056ZM15.372 0.316L11.0878 12.1977L10.6196 9.78846L9.08991 1.7798C8.83774 0.667491 8.06396 0.351594 7.10982 0.314888H0.0718164L0 0.667491C1.71657 1.11965 3.25172 1.7709 4.59679 2.58122L8.49594 17.7215H13.1213L19.9968 0.313775L15.372 0.316Z" fill="white"/>
</g>
<defs>
<clipPath id="clip0_466_1450">
<rect width="54" height="18" fill="white"/>
</clipPath>
</defs>
</svg>
