<svg width="32" height="34" viewBox="0 0 32 34" fill="none" xmlns="http://www.w3.org/2000/svg">
<path d="M17.7423 3.69973C17.5031 3.48247 17.219 3.32315 16.905 3.20728C15.7538 2.8307 14.498 3.39557 14.0495 4.48185C13.9897 4.45288 13.9299 4.4384 13.8701 4.40943C13.2122 4.19217 12.5245 4.32253 12.0012 4.67014C12.2554 6.16196 12.4497 7.37859 12.7039 8.798C12.7189 8.78351 13.7205 8.349 14.9914 8.53729C15.0063 8.20416 14.9465 8.04484 14.9016 7.71172C15.4548 7.2772 15.7538 7.08892 16.322 7.17582C16.606 6.32128 17.2788 4.64117 17.7423 3.69973Z" fill="#40BB61"/>
<path d="M17.7257 3.69924C17.4865 3.48198 17.2024 3.32266 16.8884 3.20679C15.7372 2.83021 14.4814 3.39508 14.0329 4.48136C13.9731 4.45239 13.9133 4.43791 13.8535 4.40894C13.1956 4.19169 12.5079 4.32204 11.9846 4.66965C12.2388 6.16147 12.4331 7.3781 12.6873 8.79751C12.7023 8.78302 13.7039 8.34851 14.9748 8.5368C14.9897 8.20368 14.9448 8.04435 14.885 7.71123C15.4681 7.26223 15.6924 7.10291 16.3054 7.17533C16.6044 6.32079 17.2772 4.64068 17.7257 3.69924Z" fill="#40BB61"/>
<path d="M22.1312 6.83631C22.4601 6.03971 22.8339 5.80797 22.9834 5.72107C23.5964 5.34449 24.4336 5.30104 25.0615 5.12724C25.3306 2.38981 24.912 0.492447 23.2973 0.0724186C23.103 0.0289674 22.9236 0 22.7292 0C22.1013 0 21.4734 0.275189 20.8903 0.767636C21.1594 1.05731 21.7724 1.76701 21.8621 2.53465C21.4136 1.85392 20.8454 1.39044 20.4866 1.14421C20.1876 1.46286 19.8886 1.82495 19.6045 2.24498C19.7241 2.37533 21.0248 3.78025 21.1594 4.9824C20.5464 4.01199 19.769 3.25884 19.2457 2.80984C18.9467 3.30229 18.6477 3.85267 18.3636 4.4465C18.7822 4.8955 19.9035 6.18455 20.053 7.37221C19.2607 6.18455 18.4234 5.54727 17.9899 5.28656C17.646 6.06868 17.332 6.9377 17.0181 7.82121C17.0629 7.9226 17.1078 8.19778 17.048 8.48746C17.4965 8.51643 17.8553 8.61781 18.244 8.84955C18.6028 9.06681 18.8719 9.32751 19.2756 9.8779C18.7224 10.6745 18.4832 10.7614 18.3038 10.8918C18.558 11.3842 18.7822 11.8187 18.857 12.7312C19.3504 12.6733 19.5298 12.7167 19.6494 12.7312C20.2474 11.2539 21.2641 8.86404 22.1312 6.83631Z" fill="#F47216"/>
<path d="M9.86362 9.66394C9.86362 9.66394 11.0896 8.23005 9.48985 7.30309C10.0131 7.17274 10.8504 7.43344 10.9849 8.30247C11.0896 9.4322 9.86362 9.66394 9.86362 9.66394ZM8.78717 3.47939C9.31044 3.34904 10.1477 3.60974 10.2822 4.47877C10.4018 5.6085 9.17589 5.84023 9.17589 5.84023C9.17589 5.84023 10.3869 4.42083 8.78717 3.47939ZM10.2224 11.0399C10.8205 9.76532 11.9567 9.14253 11.9567 9.14253L10.8055 2.08895V2.07447C10.8055 2.05998 10.7906 2.03101 10.7457 1.98756C10.671 1.91514 10.4766 1.78479 9.95332 1.75583C8.86193 1.71238 5.69239 1.52408 5.24387 1.49512H5.22891C5.19901 1.5096 5.13921 1.52408 5.09436 1.55305C5.00466 1.61099 4.9598 1.65444 4.94485 1.82825C4.94485 1.97308 5.03455 2.84211 5.18406 4.0008C5.33357 5.17399 5.52792 6.68029 5.70733 8.17211C5.81199 8.95424 5.91664 9.73635 6.00635 10.4605C6.99309 10.2578 7.62102 10.6778 7.62102 10.6778L6.73893 3.49387C6.72398 3.33455 6.82863 3.2042 6.99309 3.18971C7.15755 3.17523 7.2921 3.27661 7.30705 3.43594L8.24894 11.1558C8.24894 11.1558 8.36855 11.2716 8.42835 11.344C9.3852 10.8516 10.1028 11.0109 10.2224 11.0399ZM2.61255 3.30558C2.70225 4.30496 2.77701 4.79741 2.77701 4.79741C2.77701 4.79741 2.70225 5.08708 3.46473 5.27537C3.79365 5.36227 4.10761 5.42021 4.37672 5.47814C3.97306 5.72436 3.44978 6.12991 3.19562 6.68029C3.28533 7.67967 3.34513 8.17211 3.34513 8.17211C3.34513 8.17211 3.38998 8.51972 4.03286 8.65008C4.39168 8.72249 4.75049 8.79492 5.01961 8.85285C4.79535 8.95424 4.13751 9.31633 3.68899 9.85223C4.64584 10.026 5.07941 10.5909 5.24387 10.7068C5.25882 10.7068 5.27376 10.7068 5.27376 10.7068C5.13921 9.62049 4.31692 3.13178 4.15246 1.91514C3.76375 2.10343 2.95641 2.5814 2.61255 3.30558Z" fill="#6243A4"/>
<path d="M23.8216 20.168V22.0219H25.3167C25.9596 22.0219 26.4081 21.6598 26.4081 21.0949C26.4081 20.4287 25.9596 20.1824 25.1373 20.168H23.8216ZM20.8016 26.2511C20.4129 26.2511 20.0839 26.1063 19.9494 25.7442L19.5308 24.6H16.9294L16.5107 25.7442C16.3911 26.0918 16.0921 26.2656 15.6885 26.2656C15.6735 26.2656 15.6735 26.2656 15.6586 26.2656C15.4044 26.2656 15.1801 26.1932 15.0306 26.0483C14.8662 25.9035 14.7765 25.7007 14.7765 25.4545C14.7765 25.2517 14.8811 24.9621 14.9559 24.7883L17.1536 19.1686L17.2433 19.1975L17.1536 19.1686C17.3031 18.763 17.647 18.6037 18.0656 18.6037H18.4693C18.858 18.5892 19.2766 18.7196 19.471 19.27L21.5342 24.7738C21.594 24.9331 21.6986 25.2228 21.6986 25.44C21.6986 25.9035 21.295 26.2511 20.8016 26.2511ZM14.5971 25.1359C14.5971 25.469 14.5223 25.7587 14.3429 25.947C14.1635 26.1497 13.8794 26.2511 13.5057 26.2511C13.4907 26.2511 13.4758 26.2511 13.4608 26.2511C12.9525 26.2511 12.7133 26.1063 12.504 25.7732L9.70819 21.5005V25.3676C9.70819 25.6428 9.61849 25.8745 9.45403 26.0339C9.28958 26.1932 9.06531 26.2511 8.7962 26.2511C8.52709 26.2511 8.28788 26.1787 8.13837 26.0339C7.97391 25.8745 7.88421 25.6573 7.88421 25.3676V19.6465C7.88421 19.2989 7.97392 19.0237 8.18323 18.8355C8.39254 18.6616 8.6766 18.5892 9.05036 18.5892C9.42413 18.5892 9.78295 18.7341 9.97731 19.0672L12.788 23.4702V19.4872C12.788 19.212 12.8777 18.9803 13.0422 18.821C13.2066 18.6616 13.4309 18.6037 13.7 18.6037C13.9691 18.6037 14.2083 18.6761 14.3578 18.821C14.5223 18.9803 14.612 19.1975 14.612 19.4872C14.5971 19.4727 14.5971 25.1359 14.5971 25.1359ZM28.2022 20.3997L29.1291 15.2725C29.0543 15.258 28.9796 15.258 28.9048 15.258C28.546 15.258 28.1723 15.3883 27.8882 15.5187C27.6041 15.649 27.4098 15.7794 27.3799 15.7794C27.3649 15.7794 26.7669 14.8524 25.9147 14.6931C25.84 14.6786 25.7801 14.6786 25.7054 14.6786C24.9429 14.6786 24.1356 15.3159 24.1505 15.3159C24.1356 15.3159 23.6123 14.331 22.7302 14.1282H22.7153H22.7003C22.6405 14.1138 22.5658 14.1138 22.506 14.1138C22.1023 14.1138 21.7136 14.2731 21.4295 14.4324C21.1454 14.5917 20.9511 14.751 20.9511 14.751C20.966 14.751 20.3381 13.7082 19.5308 13.5634C19.4411 13.5489 19.3514 13.5344 19.2617 13.5344C18.8879 13.5344 18.5141 13.6648 18.2301 13.7951C17.946 13.9255 17.7666 14.0558 17.7666 14.0558C17.7367 14.0558 17.1088 13.1289 16.3164 12.984C16.2416 12.9695 16.1669 12.9695 16.0921 12.9695C15.7483 12.9695 15.3894 13.0999 15.1353 13.2447C14.8662 13.3751 14.7017 13.5199 14.6718 13.5199C14.6569 13.5199 14.0588 12.593 13.2066 12.4336C13.1319 12.4192 13.0721 12.4192 12.9973 12.4192C12.2349 12.4192 11.4275 13.0564 11.4425 13.0564C11.4275 13.0564 10.9042 12.0716 10.0222 11.8688H10.0072H9.99225C9.93245 11.8543 9.8577 11.8543 9.7979 11.8543C9.39423 11.8543 9.00551 12.0136 8.72145 12.1729C8.43738 12.3323 8.24303 12.4916 8.24303 12.4916C8.25798 12.4916 7.63005 11.4488 6.82272 11.3039C6.73301 11.2894 6.64331 11.2749 6.5536 11.2749C6.17983 11.2749 5.80607 11.4053 5.52201 11.5357C5.23794 11.666 5.05854 11.7964 5.05854 11.7964C5.02863 11.7964 4.38576 10.8549 3.60832 10.7101L2.0684 19.1975C2.12821 19.1541 2.18801 19.1106 2.24781 19.0817C2.83089 18.7196 3.59337 18.5603 4.32595 18.5603C5.67151 18.5747 7.28618 19.27 7.31609 20.3418C7.31609 20.8197 6.89747 21.0804 6.44895 21.0804C6.00043 21.0804 5.80607 20.7618 5.56686 20.5156C5.3127 20.2549 4.99874 20.0086 4.2213 20.0086C3.45882 20.0231 3.1 20.3273 3.1 20.7618C3.1 20.9646 3.21961 21.0949 3.42891 21.2108C3.63822 21.3267 3.92229 21.3846 4.1914 21.4425L5.61171 21.7467C7.19648 22.0943 7.645 23.0357 7.63005 23.9192C7.63005 24.6 7.36094 25.1938 6.83767 25.6138C6.29944 26.0339 5.52201 26.2801 4.47546 26.2801C2.29266 26.2801 1.27602 25.2228 1.26107 24.3682C1.26107 23.9192 1.60493 23.6006 2.0684 23.6006C2.59168 23.6006 2.78604 23.9772 3.0402 24.2813C3.30931 24.6 3.63822 24.8896 4.46051 24.9041C5.3127 24.9041 5.73132 24.4551 5.73132 24.0496C5.73132 23.7889 5.62666 23.5282 5.07349 23.3833L3.1598 22.9054C2.32257 22.7026 1.84415 22.355 1.57503 21.9639L0.483638 27.9892C0.289279 28.9741 0.453736 29.8141 1.8292 30.0748L23.8814 33.9709C24.001 33.9854 24.1206 33.9999 24.2253 33.9999C25.0775 33.9999 25.8549 33.435 26.0194 32.566L27.8433 22.5288C27.7686 22.6157 27.6938 22.7026 27.6041 22.7895C27.1407 23.2095 26.4679 23.4702 25.6306 23.4702H23.8366V25.3386C23.8366 25.5993 23.7469 25.8311 23.5824 26.0049C23.4179 26.1642 23.1787 26.2656 22.8947 26.2656C22.6106 26.2656 22.3714 26.1787 22.2069 26.0049C22.0425 25.8456 21.9528 25.6138 21.9528 25.3386V19.7769C21.9528 19.4003 22.0574 19.1251 22.2518 18.9513C22.4462 18.7775 22.7302 18.7196 23.0442 18.7196H25.6456C26.3782 18.7196 27.036 18.8934 27.5294 19.2844C27.8433 19.5452 28.0826 19.9217 28.2022 20.3997ZM17.3779 23.2675H19.0972L18.26 20.7328L17.3779 23.2675Z" fill="#024D36"/>
<path d="M18.3041 9.88605C18.0649 9.58189 17.5416 9.2198 16.9137 9.2198C16.0465 9.2198 15.8821 9.59638 15.8671 9.5819C16.0764 9.07497 16.3605 8.32181 16.2558 8.07559C16.1213 7.72798 15.7027 8.04662 15.7027 8.04662C15.7027 8.04662 15.8073 8.64045 15.6429 9.50948C15.5831 9.46603 15.4784 9.42257 15.3289 9.37912C13.5797 8.91564 11.7108 9.71225 10.9185 11.3344C11.1427 11.4648 11.3969 11.6531 11.6361 11.9283C12.0996 11.6965 12.5481 11.5806 12.9816 11.5806C13.1013 11.5806 13.2358 11.5951 13.3554 11.6096C13.8787 11.711 14.387 11.9862 14.8505 12.4352C15.2691 12.2324 15.6877 12.131 16.0764 12.131C16.211 12.131 16.3306 12.1455 16.4502 12.16C17.0632 12.2759 17.5565 12.6235 17.9303 13.0001C17.9752 12.9856 18.02 12.9711 18.0649 12.9421V12.9276C18.0499 12.0296 17.6762 11.1606 17.0482 10.4364C17.6612 10.4364 18.0649 10.2047 18.3041 9.88605Z" fill="#C02123"/>
<path d="M28.0013 9.16206L23.3815 7.32263L23.2619 7.27918C23.4862 6.74328 23.7105 6.6419 24.5776 6.45361L26.3866 6.07703L27.5677 7.65576C28.1359 8.46685 28.2405 8.62617 28.0013 9.16206ZM22.9031 13.3189H22.9181H22.9031ZM30.8718 7.62679L29.6459 5.88875C29.7057 5.72942 29.7954 5.52665 29.8701 5.36733C30.0346 5.01972 29.601 4.99075 29.601 4.99075L27.2687 4.83143C27.2687 4.83143 26.895 4.78798 26.7454 5.19352C26.7006 5.29491 26.6557 5.42526 26.6109 5.54113L24.5776 5.99013C23.4713 6.17842 23.1872 6.33774 22.8882 7.04744L20.3765 12.9713C20.6605 13.1306 20.9296 13.3334 21.1838 13.6231C21.6473 13.3913 22.0958 13.2754 22.5294 13.2754C22.634 13.2754 22.7387 13.2754 22.8433 13.2899H22.8583H22.8732C22.9031 13.2899 22.9181 13.3044 22.948 13.3044H22.9629C23.3516 13.3913 23.8749 13.6231 24.3832 14.1734C24.8467 13.9417 25.2952 13.8258 25.7288 13.8258C25.7886 13.8258 25.8335 13.8258 25.8783 13.8258L27.2538 11.0594L26.3418 13.9127C26.7903 14.0431 27.2239 14.3183 27.6275 14.7093C28.091 14.5066 28.5395 14.4052 28.9282 14.4052C29.0628 14.4052 29.1974 14.4197 29.317 14.4341L29.3768 14.4486L31.4549 9.55313C31.724 8.87239 31.5895 8.66962 30.8718 7.62679Z" fill="#00ADEF"/>
<path d="M0.638903 11.7345C0.698706 11.7779 0.803359 11.8069 0.908013 11.8069C1.05752 11.8069 1.14722 11.7345 1.14722 11.6186C1.14722 11.5172 1.08742 11.4593 0.922965 11.4014C0.728606 11.3289 0.623952 11.242 0.623952 11.0827C0.623952 10.9089 0.773458 10.7786 0.997718 10.7786C1.11732 10.7786 1.20703 10.8075 1.25188 10.8365L1.20703 10.9524C1.16217 10.9379 1.08742 10.8944 0.982767 10.8944C0.818309 10.8944 0.758507 10.9813 0.758507 11.0682C0.758507 11.1696 0.83326 11.2276 0.982767 11.2855C1.17713 11.3579 1.28178 11.4448 1.28178 11.6186C1.28178 11.7924 1.14723 11.9373 0.878115 11.9373C0.77346 11.9373 0.638904 11.9083 0.579102 11.8648L0.638903 11.7345Z" fill="#024D36"/>
<path d="M2.48174 11.4101C2.46678 11.2508 2.46678 11.0625 2.46678 10.9177C2.42193 11.048 2.37708 11.1929 2.31728 11.3522L2.10797 11.9026H1.98836L1.794 11.3667C1.7342 11.2073 1.68935 11.0625 1.65945 10.9321C1.65945 11.077 1.6445 11.2653 1.6445 11.4246L1.61459 11.9026H1.46509L1.53984 10.7728H1.7342L1.92856 11.3232C1.97341 11.468 2.01827 11.5839 2.04817 11.6998C2.07807 11.5839 2.12292 11.468 2.16777 11.3232L2.37708 10.7728H2.57144L2.64619 11.9026H2.49669L2.48174 11.4101Z" fill="#024D36"/>
</svg>
