<svg width="24" height="24" viewBox="0 0 24 24" fill="none" xmlns="http://www.w3.org/2000/svg">
<path d="M12 22C17.5228 22 22 17.5228 22 12C22 6.47715 17.5228 2 12 2C6.47715 2 2 6.47715 2 12C2 17.5228 6.47715 22 12 22Z" stroke="#8E8E93" stroke-width="1.5" stroke-miterlimit="10"/>
<path d="M14.9999 9C14.9999 8.20435 14.6839 7.4413 14.1212 6.87869C13.5586 6.31608 12.7956 6 11.9999 6C11.2043 6 10.4414 6.31608 9.87881 6.87869C9.31621 7.4413 8.99991 8.20435 8.99991 9V9V11C8.99991 11.7956 9.31621 12.5587 9.87881 13.1213C10.4414 13.6839 11.2043 14 11.9999 14C12.7956 14 13.5586 13.6839 14.1212 13.1213C14.6839 12.5587 14.9999 11.7956 14.9999 11V9Z" stroke="#8E8E93" stroke-width="1.5" stroke-miterlimit="10"/>
<path d="M5.46011 19.97C6.28293 19.0441 7.28913 18.2994 8.41495 17.783C9.54077 17.2666 10.7614 16.9897 11.9999 16.97C13.184 16.9842 14.3536 17.2338 15.4403 17.7042C16.5271 18.1746 17.5092 18.8564 18.33 19.71" stroke="#8E8E93" stroke-width="1.5" stroke-miterlimit="10"/>
</svg>
