<svg width="24" height="24" viewBox="0 0 24 24" fill="none" xmlns="http://www.w3.org/2000/svg">
<path d="M8 22H16C17.1046 22 18 21.1046 18 20L18 4C18 2.89543 17.1046 2 16 2H8C6.89543 2 6 2.89543 6 4L6 20C6 21.1046 6.89543 22 8 22Z" stroke="#1C1C1E" stroke-width="2" stroke-miterlimit="10"/>
<path d="M13.3809 3.5H13.3799L10.6199 3.5L10.6189 3.5C10.5252 3.50019 10.4333 3.47405 10.3538 3.42453C10.2743 3.37507 10.2102 3.30424 10.169 3.22L10.169 3.22L10.1672 3.2164L9.809 2.5H14.191L13.8328 3.2164L13.8328 3.2164L13.831 3.22C13.7899 3.30393 13.7258 3.37489 13.646 3.42453C13.5664 3.47405 13.4746 3.50019 13.3809 3.5ZM13.3799 4H10.6199H13.3799Z" fill="#44475C" stroke="#1C1C1E"/>
</svg>
