<svg width="33" height="23" viewBox="0 0 33 23" fill="none" xmlns="http://www.w3.org/2000/svg">
<path d="M16.1039 21.2276C18.2667 21.2276 20.2462 20.8513 22.0458 20.2428L20.1795 18.3723C18.9009 18.7511 17.5488 18.9793 16.1039 18.9793C8.60694 18.9793 2.65404 12.7188 2.65404 11.0854C2.65404 10.2989 4.65326 7.75187 7.8614 5.78101L6.10032 4.02204C2.26547 6.45297 0 9.68008 0 11.0854C0 13.4824 6.62578 21.2276 16.1039 21.2276ZM16.1039 0.94751C14.0627 0.94751 12.2027 1.29696 10.4822 1.86696L12.3581 3.73539C13.5459 3.39296 14.771 3.19562 16.1039 3.19562C23.5913 3.19562 29.5463 9.71618 29.5463 11.0854C29.5463 12.0029 27.6516 14.3973 24.6312 16.2925L26.37 18.0376C30.0415 15.6163 32.2003 12.4619 32.2003 11.0854C32.2003 8.68305 25.7119 0.94751 16.1039 0.94751ZM16.1039 17.4032C17.0128 17.4032 17.8695 17.1833 18.6375 16.8247L10.3399 8.52718C9.9696 9.29312 9.76147 10.1593 9.76147 11.0875C9.77108 14.5246 12.5794 17.4032 16.1039 17.4032ZM21.9532 13.3501C22.2638 12.6536 22.4313 11.8801 22.4313 11.0833C22.4313 7.56086 19.6134 4.77179 16.106 4.77179C15.292 4.77179 14.5282 4.93937 13.8316 5.22859L21.9532 13.3501Z" fill="black"/>
<path d="M25.3391 21.4257C25.7033 21.7996 26.2869 21.8188 26.6586 21.4257C27.0496 21.0327 27.0207 20.48 26.6586 20.1062L6.81388 0.273164C6.44967 -0.0910546 5.85435 -0.0910546 5.48264 0.273164C5.13014 0.625663 5.13014 1.2423 5.48264 1.59269L25.3391 21.4257Z" fill="black"/>
</svg>
