<svg width="18" height="18" viewBox="0 0 18 18" fill="none" xmlns="http://www.w3.org/2000/svg">
<circle cx="9" cy="9" r="9" fill="#FFB800"/>
<path d="M13.4953 6.72036C13.497 6.81232 13.4799 6.90365 13.4451 6.98878C13.4103 7.0739 13.3584 7.151 13.2928 7.21536L7.89275 12.6154C7.76259 12.7311 7.59445 12.7951 7.42025 12.7951C7.24605 12.7951 7.07792 12.7311 6.94775 12.6154L4.20275 9.87036C4.13624 9.8038 4.08399 9.72438 4.04917 9.63695C4.01436 9.54953 3.99771 9.45593 4.00025 9.36187C3.99975 9.26338 4.01947 9.16585 4.05817 9.07529C4.09687 8.98473 4.15373 8.90307 4.22525 8.83537C4.35736 8.70564 4.53511 8.63297 4.72025 8.63297C4.9054 8.63297 5.08315 8.70564 5.21525 8.83537L7.42025 11.0404L12.2353 6.22536C12.3026 6.15341 12.3842 6.09626 12.4749 6.05752C12.5655 6.01879 12.6632 5.99933 12.7618 6.00036C12.8559 5.99729 12.9496 6.01369 13.0371 6.04853C13.1246 6.08338 13.204 6.13592 13.2703 6.20286C13.3411 6.2692 13.3976 6.34934 13.4363 6.43834C13.475 6.52734 13.4951 6.62332 13.4953 6.72036Z" fill="white"/>
</svg>
