<svg width="18" height="22" viewBox="0 0 18 22" fill="none" xmlns="http://www.w3.org/2000/svg">
<path d="M8.99988 12V18M15.7998 5.59998L10.2 1.40002C9.85376 1.14038 9.43274 1 9 1C8.56726 1 8.146 1.14038 7.7998 1.40002L2.19995 5.59998C1.82736 5.87942 1.52493 6.24176 1.31665 6.65833C1.10837 7.07489 1 7.53426 1 8V19C1 19.5304 1.21062 20.0391 1.58569 20.4142C1.96077 20.7893 2.46957 21 3 21H15C15.5304 21 16.039 20.7893 16.4141 20.4142C16.7891 20.0391 17 19.5304 17 19V8C17 7.53426 16.8914 7.07489 16.6831 6.65833C16.4748 6.24176 16.1724 5.87942 15.7998 5.59998Z" stroke="#C7C7CC" stroke-width="2" stroke-miterlimit="10"/>
</svg>
