<svg width="24" height="24" viewBox="0 0 24 24" fill="none" xmlns="http://www.w3.org/2000/svg">
<circle cx="12" cy="12" r="12" fill="#32D74B"/>
<path d="M17.9999 8.8481C18.0019 8.95636 17.9821 9.06389 17.9418 9.16411C17.9014 9.26432 17.8414 9.3551 17.7653 9.43088L11.5096 15.7884C11.3588 15.9247 11.164 16 10.9622 16C10.7604 16 10.5656 15.9247 10.4148 15.7884L7.23488 12.5567C7.15783 12.4783 7.0973 12.3848 7.05697 12.2819C7.01663 12.1789 6.99735 12.0687 7.00029 11.958C6.99972 11.8421 7.02255 11.7272 7.06738 11.6206C7.11222 11.514 7.1781 11.4179 7.26095 11.3381C7.41398 11.1854 7.6199 11.0998 7.83438 11.0998C8.04887 11.0998 8.25478 11.1854 8.40782 11.3381L10.9622 13.9341L16.5402 8.26533C16.6182 8.18062 16.7128 8.11333 16.8178 8.06772C16.9228 8.02212 17.036 7.99921 17.1501 8.00043C17.2592 7.99681 17.3678 8.01612 17.4692 8.05714C17.5705 8.09817 17.6625 8.16002 17.7392 8.23884C17.8213 8.31694 17.8867 8.41128 17.9316 8.51606C17.9764 8.62085 17.9996 8.73384 17.9999 8.8481Z" fill="white"/>
</svg>
