<svg width="20" height="22" viewBox="0 0 20 22" fill="none" xmlns="http://www.w3.org/2000/svg">
<path d="M1 21C2.52 16.88 6 14 10 14C14 14 17.48 16.88 19 21M14 5C14 3.93913 13.5785 2.92172 12.8284 2.17157C12.0782 1.42142 11.0609 1 10 1C8.93913 1 7.92178 1.42142 7.17163 2.17157C6.42149 2.92172 6 3.93913 6 5V7C6 8.06087 6.42149 9.07828 7.17163 9.82843C7.92178 10.5786 8.93913 11 10 11C11.0609 11 12.0782 10.5786 12.8284 9.82843C13.5785 9.07828 14 8.06087 14 7V5Z" stroke="#C7C7CC" stroke-width="2" stroke-miterlimit="10"/>
</svg>
