<svg width="24" height="24" viewBox="0 0 24 24" fill="none" xmlns="http://www.w3.org/2000/svg">
<path d="M16 4H18C18.5304 4 19.039 4.21071 19.4141 4.58578C19.7891 4.96086 20 5.46957 20 6V20C20 20.5304 19.7891 21.0391 19.4141 21.4142C19.039 21.7893 18.5304 22 18 22H6C5.46957 22 4.96077 21.7893 4.58569 21.4142C4.21062 21.0391 4 20.5304 4 20V6C4 5.46957 4.21062 4.96086 4.58569 4.58578C4.96077 4.21071 5.46957 4 6 4H8" stroke="#8E8E93" stroke-width="1.5" stroke-miterlimit="10"/>
<path d="M10 6C9.46957 6 8.96077 5.78929 8.58569 5.41422C8.21062 5.03914 8 4.53043 8 4C8 3.46957 8.21062 2.96086 8.58569 2.58578C8.96077 2.21071 9.46957 2 10 2H14C14.5304 2 15.039 2.21071 15.4141 2.58578C15.7891 2.96086 16 3.46957 16 4C16 4.53043 15.7891 5.03914 15.4141 5.41422C15.039 5.78929 14.5304 6 14 6H10Z" stroke="#8E8E93" stroke-width="1.5" stroke-miterlimit="10"/>
<path d="M7 10H17" stroke="#8E8E93" stroke-width="1.5" stroke-miterlimit="10"/>
<path d="M7 14H14" stroke="#8E8E93" stroke-width="1.5" stroke-miterlimit="10"/>
</svg>
